<svg width="45" height="45" viewBox="0 0 45 45" fill="none" xmlns="http://www.w3.org/2000/svg">
<path d="M35.1562 19.9338V15.7502C35.1562 15.0043 34.8599 14.2889 34.3325 13.7614C33.805 13.234 33.0897 12.9377 32.3438 12.9377H23.9062V11.0927C24.3352 10.7074 24.6094 10.1533 24.6094 9.53174C24.6094 8.9723 24.3871 8.43577 23.9916 8.04018C23.596 7.6446 23.0594 7.42236 22.5 7.42236C21.9406 7.42236 21.404 7.6446 21.0084 8.04018C20.6129 8.43577 20.3906 8.9723 20.3906 9.53174C20.3906 10.1533 20.6648 10.7074 21.0938 11.0927V12.9377H12.6563C11.9103 12.9377 11.195 13.234 10.6675 13.7614C10.1401 14.2889 9.84375 15.0043 9.84375 15.7502V19.9661L9.7425 19.9731C9.38797 19.9984 9.05619 20.1571 8.81402 20.4173C8.57186 20.6775 8.43731 21.0197 8.4375 21.3752V24.1877C8.4375 24.5606 8.58566 24.9183 8.84938 25.182C9.1131 25.4458 9.47079 25.5939 9.84375 25.5939V32.6252C9.84375 33.3711 10.1401 34.0865 10.6675 34.6139C11.195 35.1414 11.9103 35.4377 12.6563 35.4377H32.3438C33.0897 35.4377 33.805 35.1414 34.3325 34.6139C34.8599 34.0865 35.1562 33.3711 35.1562 32.6252V25.5939C35.5292 25.5939 35.8869 25.4458 36.1506 25.182C36.4143 24.9183 36.5625 24.5606 36.5625 24.1877V21.4624C36.5788 21.2441 36.5441 21.0251 36.4612 20.8225C36.1772 20.1363 35.5683 19.9717 35.1562 19.9338ZM15.4688 21.3752C15.4688 19.8227 16.4138 18.5627 17.5781 18.5627C18.7425 18.5627 19.6875 19.8227 19.6875 21.3752C19.6875 22.9277 18.7425 24.1877 17.5781 24.1877C16.4138 24.1877 15.4688 22.9277 15.4688 21.3752ZM28.1222 29.8127C26.7145 29.8085 16.875 29.8127 16.875 29.8127V27.0002C16.875 27.0002 26.7202 26.9974 28.1278 27.0002L28.1222 29.8127ZM27.4219 24.1877C26.2575 24.1877 25.3125 22.9277 25.3125 21.3752C25.3125 19.8227 26.2575 18.5627 27.4219 18.5627C28.5863 18.5627 29.5312 19.8227 29.5312 21.3752C29.5312 22.9277 28.5863 24.1877 27.4219 24.1877Z" fill="#ECF4FF"/>
<circle cx="22.5" cy="22.5" r="22" stroke="white"/>
</svg>
