<svg width="26" height="22" viewBox="0 0 26 22" fill="none" xmlns="http://www.w3.org/2000/svg">
<path d="M14.0893 10.9294L4.04761 12.2942C3.93216 12.3099 3.82382 12.3502 3.73348 12.4109C3.64315 12.4716 3.574 12.5506 3.53299 12.64L0.0706723 20.2069C-0.259961 20.9029 0.631949 21.5663 1.45053 21.2313L25.4481 11.4438C25.614 11.376 25.7535 11.2719 25.8509 11.1431C25.9484 11.0143 26 10.866 26 10.7146C26 10.5633 25.9484 10.4149 25.8509 10.2861C25.7535 10.1574 25.614 10.0533 25.4481 9.98544L1.45053 0.197908C0.631949 -0.135956 -0.259961 0.527421 0.0706723 1.22234L3.53432 8.78919C3.57533 8.87861 3.64448 8.95765 3.73482 9.01836C3.82515 9.07906 3.93349 9.1193 4.04894 9.13501L14.0906 10.4998C14.1532 10.508 14.2103 10.5341 14.2514 10.5735C14.2926 10.6128 14.3152 10.6629 14.3152 10.7146C14.3152 10.7664 14.2926 10.8164 14.2514 10.8558C14.2103 10.8951 14.1532 10.9212 14.0906 10.9294H14.0893Z" fill="#999999"/>
</svg>
